<svg id="f20173a0-50a2-45ff-bd8a-221cc44af794" data-name="Layer 2" xmlns="http://www.w3.org/2000/svg" viewBox="0 0 853.85 818.88"><defs><style>.a08cd0ca-9e4d-4f28-b8b6-bd2ad5c70533{fill:#214477;}.e6791bfa-443f-4aa4-bba7-1f7ad40d2d38{fill:#fecb17;}</style></defs><title>sosthe-logo-s-textom</title><path class="a08cd0ca-9e4d-4f28-b8b6-bd2ad5c70533" d="M144.67,812.05v51.38q0,5.88-7.28,5.88-7.56,0-7.56-5.88V812.05h-5.75q-6.85,0-6.85-5.46t6.85-5.46h5.75V788.25q0-5.88,7.27-5.88,7.58,0,7.57,5.88v12.88h24.08q7,0,7,5.46t-7,5.46Z" transform="translate(-117.23 -123.23)"/><path class="a08cd0ca-9e4d-4f28-b8b6-bd2ad5c70533" d="M199.27,839.21v8.54q0,9.94,19.46,9.94h20.72q7,0,7,5.46t-7,5.46H218.73q-34.17,0-34.16-20.72V820.45q0-19.87,30.52-19.88h40.46q29.82,0,29.82,17.92v15.68q0,5-6.44,5Zm0-9.66h70.28c.74,0,1.12-.33,1.12-1v-7.28q0-9.66-16.24-9.66h-38.5q-16.67,0-16.66,9.66Z" transform="translate(-117.23 -123.23)"/><path class="a08cd0ca-9e4d-4f28-b8b6-bd2ad5c70533" d="M333.66,868.61q-36.26,0-36.26-22.12V822.83q0-22.26,36.26-22.26H382.1q7.29,0,7.28,5.74t-7.28,5.74h-49q-20.72,0-20.72,10.64v23.94q0,10.64,20.72,10.64h49q7.29,0,7.28,5.6t-7.28,5.74Z" transform="translate(-117.23 -123.23)"/><path class="a08cd0ca-9e4d-4f28-b8b6-bd2ad5c70533" d="M487.94,822.55q0-10.5-19.74-10.5H417.38v51.38q0,5.88-7.42,5.88t-7.42-5.88V775q0-5.88,7.42-5.88t7.42,5.88v25.62H466.8q36.12,0,36.12,22.26v40.6q0,5.88-7.42,5.88t-7.56-5.88Z" transform="translate(-117.23 -123.23)"/><path class="a08cd0ca-9e4d-4f28-b8b6-bd2ad5c70533" d="M602.88,822.83q0-10.79-20.86-10.78H554q-20.71,0-20.72,10.78v40.6q0,5.88-7.42,5.88t-7.42-5.88v-40.6q0-22.26,36.12-22.26h27q36.12,0,36.12,22.26v40.6q0,5.88-7.42,5.88t-7.42-5.88Z" transform="translate(-117.23 -123.23)"/><path class="a08cd0ca-9e4d-4f28-b8b6-bd2ad5c70533" d="M649.22,783.21q0,6.72-8.12,6.72T633,783.21q0-6.72,8.12-6.72T649.22,783.21Zm-15.54,22.54q0-5.88,7.42-5.88t7.42,5.88v57.68q0,5.88-7.42,5.88t-7.42-5.88Z" transform="translate(-117.23 -123.23)"/><path class="a08cd0ca-9e4d-4f28-b8b6-bd2ad5c70533" d="M700.32,868.61q-36.27,0-36.26-22.12V822.83q0-22.26,36.26-22.26h48.44q7.28,0,7.28,5.74t-7.28,5.74h-49q-20.71,0-20.72,10.64v23.94q0,10.64,20.72,10.64h49q7.28,0,7.28,5.6t-7.28,5.74Z" transform="translate(-117.23 -123.23)"/><path class="a08cd0ca-9e4d-4f28-b8b6-bd2ad5c70533" d="M784,841.73v21.7q0,5.88-7.42,5.88t-7.42-5.88V774.81q0-5.74,7.42-5.74t7.42,5.74v51l59.64-24.08,3.5-1.4a6.77,6.77,0,0,1,3.08-.42,9,9,0,0,1,5.46,1.47,5,5,0,0,1,2,4.27,4.85,4.85,0,0,1-1,3.22,9.83,9.83,0,0,1-3.71,2.38l-58.24,22.54,58.52,24.36a8,8,0,0,1,3.64,2.66,5.4,5.4,0,0,1,.84,2.8q0,5.74-7.84,5.74a8.65,8.65,0,0,1-3.08-.49c-.84-.33-2.1-.86-3.78-1.61Z" transform="translate(-117.23 -123.23)"/><path class="a08cd0ca-9e4d-4f28-b8b6-bd2ad5c70533" d="M897,868.61q-30,0-30-18.62v-8q0-18.48,30-18.48h59.5v-2.1q0-9.79-17.22-9.8H919.56q-7,0-7-5.46t7-5.6H939.3q31.77,0,31.78,20.86v27.44q0,19.74-30.52,19.74Zm42.7-10.92q16.8,0,16.8-9.24V833.19H898.14q-16.38,0-16.38,8.54V849q0,8.68,16.38,8.68Zm-12-64.26a8.74,8.74,0,0,1-2.73,1.82,8.24,8.24,0,0,1-2.73.42q-6.3,0-6.3-4.9a5,5,0,0,1,1.68-3.5l23.8-24.5a7.85,7.85,0,0,1,6-2.24q8,0,8,5.32a4.39,4.39,0,0,1-.56,2.31,8.78,8.78,0,0,1-1.68,1.89Z" transform="translate(-117.23 -123.23)"/><path class="a08cd0ca-9e4d-4f28-b8b6-bd2ad5c70533" d="M267.48,921.92H227.36v17.42q0,2.77-3.63,2.77c-2.34,0-3.5-.92-3.5-2.77V898.55c0-1.84,1.23-2.77,3.69-2.77,2.29,0,3.44.93,3.44,2.77v18h40.12v-18q0-2.72,3.5-2.71t3.63,2.71v40.85q0,2.77-3.63,2.77t-3.5-2.77Z" transform="translate(-117.23 -123.23)"/><path class="a08cd0ca-9e4d-4f28-b8b6-bd2ad5c70533" d="M341.34,941.78q-17,0-17-10.42V912.15q0-2.77,3.5-2.77t3.5,2.77v19.27q0,5,9.76,5h12.54q9.78,0,9.77-5V912.15q0-2.77,3.5-2.77c2.38,0,3.56.92,3.56,2.77v19.21q0,10.42-17,10.42Z" transform="translate(-117.23 -123.23)"/><path class="a08cd0ca-9e4d-4f28-b8b6-bd2ad5c70533" d="M475.32,919.94q0-4.83-7.92-4.82h-4.75q-8.19,0-8.19,4.82v19.4q0,2.77-3.43,2.77t-3.5-2.77v-19.4q0-4.83-8.12-4.82h-4.75q-7.86,0-7.85,4.82v19.4q0,2.77-3.5,2.77t-3.5-2.77v-19.4q0-10.23,15.05-10.23h4.82q7.38,0,11.35,3.83,4-3.84,11.35-3.83h4.82q15.1,0,15.11,10.23v19.4q0,2.77-3.49,2.77c-2.34,0-3.5-.92-3.5-2.77Z" transform="translate(-117.23 -123.23)"/><path class="a08cd0ca-9e4d-4f28-b8b6-bd2ad5c70533" d="M538.35,927.92v4q0,4.68,9.17,4.68h9.77q3.3,0,3.3,2.58c0,1.71-1.1,2.57-3.3,2.57h-9.77q-16.11,0-16.1-9.76V919.08q0-9.37,14.38-9.37h19.08q14.05,0,14.06,8.44v7.4c0,1.58-1,2.37-3,2.37Zm0-4.55h33.13c.35,0,.53-.16.53-.46v-3.44q0-4.54-7.66-4.55H546.2q-7.86,0-7.85,4.55Z" transform="translate(-117.23 -123.23)"/><path class="a08cd0ca-9e4d-4f28-b8b6-bd2ad5c70533" d="M666.58,920.2q0-5.09-9.83-5.08h-13.2q-9.76,0-9.77,5.08v19.14c0,1.85-1.16,2.77-3.5,2.77s-3.49-.92-3.49-2.77V920.2q0-10.49,17-10.49h12.74q17,0,17,10.49v19.14q0,2.77-3.5,2.77t-3.5-2.77Z" transform="translate(-117.23 -123.23)"/><path class="a08cd0ca-9e4d-4f28-b8b6-bd2ad5c70533" d="M762.75,920.2q0-5.09-9.84-5.08h-13.2q-9.76,0-9.77,5.08v19.14q0,2.77-3.49,2.77c-2.34,0-3.5-.92-3.5-2.77V920.2q0-10.49,17-10.49h12.73q17,0,17,10.49v19.14c0,1.85-1.16,2.77-3.5,2.77s-3.49-.92-3.49-2.77Z" transform="translate(-117.23 -123.23)"/><path class="a08cd0ca-9e4d-4f28-b8b6-bd2ad5c70533" d="M825.84,927.92v4q0,4.68,9.18,4.68h9.76q3.3,0,3.3,2.58c0,1.71-1.1,2.57-3.3,2.57H835q-16.11,0-16.11-9.76V919.08q0-9.37,14.39-9.37h19.07q14.05,0,14.06,8.44v7.4c0,1.58-1,2.37-3,2.37Zm0-4.55H859c.35,0,.53-.16.53-.46v-3.44q0-4.54-7.65-4.55H833.7q-7.86,0-7.86,4.55Zm15.45-17a4.15,4.15,0,0,1-1.29.86,3.93,3.93,0,0,1-1.29.2q-3,0-3-2.31a2.31,2.31,0,0,1,.79-1.65l11.22-11.55a3.69,3.69,0,0,1,2.84-1.06q3.76,0,3.76,2.51a2.12,2.12,0,0,1-.26,1.09,4.39,4.39,0,0,1-.79.89Z" transform="translate(-117.23 -123.23)"/><polygon class="a08cd0ca-9e4d-4f28-b8b6-bd2ad5c70533" points="173.36 402 368.36 516 368.36 34 173.36 130 173.36 402"/><polygon class="a08cd0ca-9e4d-4f28-b8b6-bd2ad5c70533" points="498.36 558 678.36 442 678.36 171 498.36 80 498.36 558"/><polygon class="e6791bfa-443f-4aa4-bba7-1f7ad40d2d38" points="301.86 591 544.86 501 544.86 0 301.86 90 301.86 591"/><path class="e6791bfa-443f-4aa4-bba7-1f7ad40d2d38" d="M405.15,340.76q0,15.45-31.47,15.45H319.86q-6.9,0-6.9-5.38t6.9-5.38h53.82q17,0,17-4.69V333q0-4.69-17-4.69H345.25q-31.46,0-31.46-15v-6.48q0-17.67,32.43-17.67h18.91q7,0,7,5.52a4.63,4.63,0,0,1-1.86,4.07,8.83,8.83,0,0,1-5.17,1.32H346.22q-18.08,0-18.08,6.76v6.07q0,5.65,17.94,5.66h28.43q30.63,0,30.64,14.07Z" transform="translate(-117.23 -123.23)"/><path class="a08cd0ca-9e4d-4f28-b8b6-bd2ad5c70533" d="M529.46,446.21q-35.75,0-35.74-21.8V401.09q0-21.94,35.74-21.95H556.1q35.73,0,35.74,21.95v23.32q0,21.79-35.74,21.8ZM577.07,401q0-10.49-20.56-10.49h-27.6q-20.43,0-20.42,10.49v23.6q0,10.49,20.42,10.48h27.6q20.57,0,20.56-10.48Z" transform="translate(-117.23 -123.23)"/><path class="e6791bfa-443f-4aa4-bba7-1f7ad40d2d38" d="M773.15,530.76q0,15.45-31.47,15.45H687.86q-6.9,0-6.9-5.38t6.9-5.38h53.82q17,0,17-4.69V523q0-4.69-17-4.69H713.25q-31.46,0-31.46-15.05v-6.48q0-17.67,32.43-17.67h18.91q7,0,7,5.52a4.63,4.63,0,0,1-1.86,4.07,8.83,8.83,0,0,1-5.17,1.32H714.22q-18.08,0-18.08,6.76v6.07q0,5.65,17.94,5.66h28.43q30.63,0,30.64,14.07Zm-43.89-58.93a7,7,0,0,1-2.62,1.86,8.18,8.18,0,0,1-3.17.62,7,7,0,0,1-5.66-2.62l-19.46-23.6a8.61,8.61,0,0,1-1.45-2,2.68,2.68,0,0,1-.21-1.58q0-4.83,6.21-4.83a6.74,6.74,0,0,1,5.52,2.34l15.05,18.63L738.65,442a5.87,5.87,0,0,1,2.41-1.65,11.19,11.19,0,0,1,3.11-.69q6.35,0,6.34,4.83a3.74,3.74,0,0,1-.34,1.58,8.61,8.61,0,0,1-1.45,2Z" transform="translate(-117.23 -123.23)"/></svg>