<svg id="a972329d-9123-4a7c-a17e-75a00fb94f5e" data-name="Layer 2" xmlns="http://www.w3.org/2000/svg" viewBox="0 0 505 591"><defs><style>.fd00bec6-359b-4fa1-8a47-2796418f26b0{fill:#214477;}.b5de999a-85ae-4663-b093-bc18b64a986e{fill:#fecb17;}</style></defs><title>sosthe-logo</title><polygon class="fd00bec6-359b-4fa1-8a47-2796418f26b0" points="0 402 195 516 195 34 0 130 0 402"/><polygon class="fd00bec6-359b-4fa1-8a47-2796418f26b0" points="325 558 505 442 505 171 325 80 325 558"/><polygon class="b5de999a-85ae-4663-b093-bc18b64a986e" points="128.5 591 371.5 501 371.5 0 128.5 90 128.5 591"/><path class="b5de999a-85ae-4663-b093-bc18b64a986e" d="M403.06,462q0,15.47-31.46,15.46H317.78q-6.9,0-6.9-5.39t6.9-5.38H371.6q17,0,17-4.69v-7.73q0-4.68-17-4.69H343.17q-31.47,0-31.46-15v-6.49q0-17.65,32.43-17.66H363q7,0,7,5.52a4.63,4.63,0,0,1-1.86,4.07,8.86,8.86,0,0,1-5.18,1.31h-18.9q-18.09,0-18.08,6.76v6.07q0,5.67,17.94,5.66h28.43q30.63,0,30.63,14.08Z" transform="translate(-288.5 -244.5)"/><path class="fd00bec6-359b-4fa1-8a47-2796418f26b0" d="M527.38,567.48q-35.75,0-35.74-21.81V522.35q0-21.94,35.74-21.94H554q35.75,0,35.74,21.94v23.32q0,21.81-35.74,21.81ZM575,522.21q0-10.49-20.56-10.49h-27.6q-20.43,0-20.43,10.49v23.6q0,10.49,20.43,10.49h27.6q20.55,0,20.56-10.49Z" transform="translate(-288.5 -244.5)"/><path class="b5de999a-85ae-4663-b093-bc18b64a986e" d="M771.06,652q0,15.47-31.46,15.46H685.78q-6.9,0-6.9-5.39t6.9-5.38H739.6q17,0,17-4.69v-7.73q0-4.68-17-4.69H711.17q-31.47,0-31.46-15v-6.49q0-17.66,32.42-17.66H731q7,0,7,5.52a4.63,4.63,0,0,1-1.86,4.07,8.86,8.86,0,0,1-5.18,1.31H712.13q-18.07,0-18.07,6.76v6.07q0,5.67,17.94,5.66h28.43q30.63,0,30.63,14.08Zm-43.88-58.93a7.09,7.09,0,0,1-2.63,1.87,8.37,8.37,0,0,1-3.17.62,7.06,7.06,0,0,1-5.66-2.62l-19.45-23.6a8.72,8.72,0,0,1-1.45-2,2.72,2.72,0,0,1-.21-1.59q0-4.83,6.21-4.83a6.73,6.73,0,0,1,5.52,2.35l15,18.63,15.18-18.63a5.93,5.93,0,0,1,2.42-1.66,11.12,11.12,0,0,1,3.1-.69q6.34,0,6.35,4.83a3.83,3.83,0,0,1-.35,1.59,9,9,0,0,1-1.45,2Z" transform="translate(-288.5 -244.5)"/></svg>